<?xml version="1.0" encoding="utf-8"?>
<!-- Generator: Adobe Illustrator 15.0.0, SVG Export Plug-In . SVG Version: 6.00 Build 0)  -->
<!DOCTYPE svg PUBLIC "-//W3C//DTD SVG 1.1//EN" "http://www.w3.org/Graphics/SVG/1.1/DTD/svg11.dtd">
<svg version="1.1" id="Layer_1" xmlns="http://www.w3.org/2000/svg" xmlns:xlink="http://www.w3.org/1999/xlink" x="0px" y="0px"
	 width="384.09px" height="104.545px" viewBox="0 0 384.09 104.545" enable-background="new 0 0 384.09 104.545"
	 xml:space="preserve">
<g>
	<g>
		<path fill="#414543" d="M62.538,89.893c0,0,6.406-41.078-41.834-35.049c0,0-0.707,0.849,3.251,1.131
			c3.957,0.283,8.813,1.665,10.034,16.092C35.402,88.763,55.047,92.579,62.538,89.893z"/>
		<path fill="#414543" d="M69.701,89.893c0,0-6.407-41.078,41.833-35.049c0,0,0.707,0.849-3.251,1.131
			c-3.957,0.283-8.813,1.665-10.035,16.092C96.836,88.763,77.191,92.579,69.701,89.893z"/>
		<path fill="#414543" d="M68.199,20.783c-1.579-5.208-2.098-7.505-2.25-8.521c0.108-0.803-0.011-0.807-0.011-0.807
			s-0.102,0.008,0,0.731v0.144c-0.149,1.048-0.661,3.348-2.208,8.453c-2.826,9.328-12.578,14.698-12.578,26.853
			c0,12.155,14.812,18.231,14.812,18.231s14.813-6.076,14.813-18.231C80.778,35.481,71.026,30.111,68.199,20.783z M65.965,60.496
			c-2.791,0-5.053-2.785-5.053-6.218c0-3.434,2.262-6.218,5.053-6.218c2.791,0,5.053,2.784,5.053,6.218
			C71.018,57.711,68.756,60.496,65.965,60.496z"/>
	</g>
	<g>
		<path fill="#414543" d="M151.958,47.647l16.171-36.728h13.617v1.506h-1.637c-2.182,0-3.612,0.18-4.288,0.54
			c-0.676,0.36-1.129,1.031-1.358,2.013c-0.229,0.982-0.344,3.317-0.344,7.005v21.769c0,3.492,0.088,5.778,0.262,6.858
			c0.174,1.081,0.617,1.882,1.326,2.406c0.709,0.524,2.067,0.786,4.075,0.786h1.964v1.505h-21.212v-1.505h1.571
			c1.877,0,3.181-0.241,3.912-0.721c0.731-0.48,1.201-1.228,1.408-2.243c0.208-1.015,0.311-3.377,0.311-7.087v-28.25l-17.579,39.805
			h-1.539L130.91,15.502v25.992c0,3.557,0.109,5.979,0.327,7.268c0.218,1.288,0.895,2.417,2.03,3.388s2.728,1.521,4.779,1.653v1.505
			H122.17v-1.505c1.898-0.109,3.442-0.628,4.632-1.555c1.189-0.928,1.915-2.068,2.176-3.421c0.262-1.354,0.393-3.863,0.393-7.529
			V21.984c0-3.536-0.104-5.816-0.311-6.841c-0.208-1.026-0.644-1.735-1.309-2.128c-0.666-0.393-2.123-0.589-4.371-0.589h-1.21
			v-1.506h13.519L151.958,47.647z"/>
		<path fill="#414543" d="M221.292,41.494h1.571l-0.95,13.813h-36.761v-1.505h0.917c2.204,0,3.628-0.296,4.271-0.884
			c0.644-0.59,1.053-1.337,1.228-2.243c0.174-0.906,0.261-3.214,0.261-6.924V21.984c0-3.383-0.093-5.608-0.277-6.678
			c-0.186-1.07-0.611-1.817-1.277-2.243c-0.666-0.426-2.068-0.638-4.207-0.638v-1.506h31.72l1.047,11.064h-1.538
			c-0.699-3.099-1.555-5.298-2.57-6.596c-1.014-1.298-2.22-2.117-3.617-2.455c-1.396-0.338-3.644-0.507-6.742-0.507h-6.154v18.626
			h4.714c2.16,0,3.672-0.186,4.533-0.557c0.862-0.371,1.43-0.933,1.702-1.686s0.409-2.221,0.409-4.403h1.538v15.189h-1.538
			c0-2.466-0.207-4.119-0.622-4.959c-0.415-0.84-1.02-1.386-1.816-1.637s-2.145-0.376-4.043-0.376h-4.877V43.13
			c0,5.26,0.338,8.354,1.015,9.281c0.676,0.927,2.498,1.391,5.467,1.391H208c2.335,0,4.255-0.302,5.762-0.901
			c1.505-0.599,2.94-1.832,4.304-3.699C219.43,47.337,220.505,44.768,221.292,41.494z"/>
		<path fill="#414543" d="M273.667,55.308h-11.948c-2.117-1.484-5.357-5.368-9.723-11.653c-1.396-2.008-2.848-3.934-4.353-5.778
			c-1.507-1.844-2.543-2.968-3.11-3.372c-0.567-0.404-1.452-0.605-2.651-0.605h-1.768v9.853c0,3.492,0.082,5.778,0.245,6.858
			c0.164,1.081,0.601,1.882,1.31,2.406c0.709,0.524,2.067,0.786,4.075,0.786h2.128v1.505h-21.245v-1.505h1.44
			c1.898,0,3.214-0.241,3.944-0.721c0.731-0.48,1.195-1.228,1.392-2.243c0.197-1.015,0.295-3.377,0.295-7.087V21.984
			c0-3.536-0.098-5.816-0.295-6.841c-0.196-1.026-0.633-1.735-1.31-2.128c-0.677-0.393-2.139-0.589-4.387-0.589h-0.753v-1.506
			l6.351-0.327c4.234-0.197,7.595-0.294,10.082-0.294c4.234,0,7.678,0.393,10.328,1.178c2.651,0.786,4.796,2.073,6.433,3.862
			c1.637,1.79,2.455,3.928,2.455,6.417c0,2.902-1.069,5.379-3.208,7.431c-2.138,2.051-5.281,3.328-9.428,3.83
			c1.855,0.895,4.846,4.125,8.97,9.689c3.36,4.518,6.001,7.474,7.922,8.871c1.92,1.397,4.19,2.138,6.809,2.227V55.308z
			 M240.114,32.394c1.637-0.043,3.327-0.109,5.073-0.196c1.746-0.088,3.263-0.328,4.55-0.72c1.288-0.393,2.331-0.966,3.127-1.718
			c0.796-0.753,1.424-1.741,1.882-2.963s0.688-2.728,0.688-4.518c0-3.121-0.78-5.62-2.34-7.496
			c-1.562-1.877-4.96-2.815-10.197-2.815c-0.808,0-1.735,0.043-2.782,0.13V32.394z"/>
		<path fill="#414543" d="M299.101,36.354h19.15v1.571c-2.117,0-3.552,0.213-4.305,0.638c-0.753,0.426-1.249,1.135-1.49,2.128
			c-0.239,0.993-0.359,3.399-0.359,7.218v4.714c-0.523-0.087-0.993-0.131-1.407-0.131c-1.681,0-3.885,0.513-6.612,1.539
			c-3.71,1.396-7.147,2.095-10.312,2.095c-6.352,0-11.632-2.089-15.844-6.269c-4.212-4.178-6.318-9.476-6.318-15.892
			c0-6.351,2.008-11.916,6.023-16.695s9.472-7.169,16.367-7.169c5.937,0,10.847,2.182,14.731,6.547
			c0.72-1.528,1.178-3.175,1.374-4.943h1.571v14.829H310.1c-0.633-4.561-2.362-8.172-5.188-10.835
			c-2.826-2.662-6.257-3.994-10.295-3.994c-4.168,0-7.802,1.549-10.9,4.648c-3.099,3.099-4.648,8.599-4.648,16.498
			c0,7.878,1.495,13.459,4.485,16.744c2.988,3.284,6.699,4.928,11.129,4.928c2.27,0,4.332-0.464,6.188-1.392
			c1.854-0.928,3.12-2.057,3.797-3.389c0.676-1.331,1.015-3.011,1.015-5.041c0-2.379-0.158-3.967-0.475-4.763
			s-0.802-1.332-1.457-1.604c-0.654-0.273-1.854-0.409-3.6-0.409h-1.049V36.354z"/>
		<path fill="#414543" d="M358.123,41.494h1.57l-0.949,13.813h-36.76v-1.505h0.916c2.204,0,3.628-0.296,4.272-0.884
			c0.643-0.59,1.053-1.337,1.228-2.243c0.174-0.906,0.262-3.214,0.262-6.924V21.984c0-3.383-0.094-5.608-0.279-6.678
			c-0.185-1.07-0.61-1.817-1.276-2.243c-0.665-0.426-2.067-0.638-4.206-0.638v-1.506h31.72l1.048,11.064h-1.539
			c-0.698-3.099-1.554-5.298-2.569-6.596c-1.015-1.298-2.22-2.117-3.617-2.455c-1.396-0.338-3.645-0.507-6.744-0.507h-6.153v18.626
			h4.713c2.161,0,3.673-0.186,4.534-0.557c0.862-0.371,1.43-0.933,1.703-1.686c0.272-0.753,0.409-2.221,0.409-4.403h1.538v15.189
			h-1.538c0-2.466-0.208-4.119-0.622-4.959c-0.415-0.84-1.021-1.386-1.816-1.637c-0.797-0.251-2.146-0.376-4.044-0.376h-4.877V43.13
			c0,5.26,0.338,8.354,1.015,9.281c0.677,0.927,2.499,1.391,5.467,1.391h3.307c2.335,0,4.255-0.302,5.761-0.901
			c1.506-0.599,2.94-1.832,4.305-3.699C356.262,47.337,357.336,44.768,358.123,41.494z"/>
	</g>
	<g>
		<path fill="#7E7E7E" d="M126.039,86.491c0.646-0.089,1.07-0.247,1.271-0.479c0.201-0.233,0.302-0.782,0.302-1.649V73.015
			c0-0.441-0.058-0.768-0.171-0.975c-0.114-0.21-0.392-0.313-0.833-0.313c-0.087,0-0.171,0.006-0.254,0.018
			c-0.083,0.011-0.175,0.024-0.278,0.041v-0.426c0.347-0.102,0.774-0.227,1.283-0.373c0.508-0.146,0.861-0.249,1.058-0.313
			l1.135-0.354l0.023,0.083v7.259c0.497-0.567,0.938-0.984,1.324-1.254c0.693-0.472,1.442-0.709,2.246-0.709
			c1.277,0,2.147,0.535,2.612,1.608c0.252,0.567,0.378,1.312,0.378,2.234v4.822c0,0.835,0.097,1.378,0.29,1.631
			s0.589,0.419,1.188,0.498v0.33h-5.119v-0.33c0.686-0.097,1.127-0.257,1.324-0.484c0.197-0.23,0.295-0.777,0.295-1.645v-4.787
			c0-0.765-0.128-1.384-0.384-1.856c-0.257-0.472-0.739-0.709-1.449-0.709c-0.615,0-1.21,0.221-1.785,0.661
			c-0.575,0.443-0.863,0.73-0.863,0.864v5.827c0,0.883,0.103,1.435,0.308,1.655c0.205,0.221,0.643,0.377,1.312,0.474v0.33h-5.213
			V86.491z"/>
		<path fill="#7E7E7E" d="M146.395,76.887c0.835,0.768,1.253,1.855,1.253,3.268h-7.507c0.079,1.823,0.493,3.154,1.242,3.985
			c0.749,0.836,1.635,1.252,2.659,1.252c0.828,0,1.525-0.217,2.093-0.648c0.567-0.434,1.092-1.046,1.572-1.842l0.414,0.144
			c-0.323,1.001-0.928,1.929-1.815,2.782c-0.886,0.853-1.972,1.278-3.256,1.278c-1.482,0-2.626-0.56-3.434-1.68
			c-0.808-1.118-1.211-2.407-1.211-3.865c0-1.583,0.469-2.95,1.407-4.103c0.938-1.149,2.159-1.725,3.665-1.725
			C144.586,75.733,145.559,76.118,146.395,76.887z M140.732,77.79c-0.252,0.426-0.433,0.962-0.544,1.608h4.989
			c-0.087-0.788-0.237-1.376-0.449-1.763c-0.386-0.694-1.033-1.039-1.939-1.039C141.891,76.597,141.205,76.992,140.732,77.79z"/>
		<path fill="#7E7E7E" d="M151.277,81.608c0.725-0.474,2.171-1.116,4.338-1.928v-1.005c0-0.803-0.079-1.362-0.236-1.678
			c-0.268-0.527-0.823-0.792-1.667-0.792c-0.402,0-0.784,0.103-1.146,0.308c-0.363,0.213-0.544,0.504-0.544,0.875
			c0,0.094,0.02,0.255,0.059,0.477c0.04,0.227,0.06,0.37,0.06,0.434c0,0.439-0.146,0.749-0.438,0.922
			c-0.166,0.103-0.362,0.153-0.591,0.153c-0.354,0-0.626-0.117-0.815-0.349c-0.189-0.232-0.284-0.49-0.284-0.775
			c0-0.551,0.341-1.127,1.022-1.73c0.682-0.604,1.681-0.905,2.997-0.905c1.529,0,2.565,0.498,3.109,1.489
			c0.291,0.545,0.438,1.337,0.438,2.378v4.739c0,0.457,0.031,0.773,0.094,0.945c0.102,0.307,0.315,0.462,0.639,0.462
			c0.181,0,0.331-0.028,0.449-0.083s0.323-0.188,0.615-0.402v0.615c-0.252,0.307-0.524,0.56-0.816,0.756
			c-0.441,0.3-0.891,0.448-1.347,0.448c-0.536,0-0.924-0.171-1.165-0.518c-0.241-0.35-0.372-0.762-0.396-1.243
			c-0.599,0.521-1.111,0.907-1.537,1.16c-0.717,0.424-1.399,0.637-2.045,0.637c-0.678,0-1.265-0.237-1.761-0.715
			c-0.497-0.477-0.745-1.082-0.745-1.815C149.563,83.325,150.134,82.373,151.277,81.608z M155.615,80.273
			c-0.906,0.3-1.655,0.63-2.246,0.991c-1.134,0.703-1.702,1.497-1.702,2.389c0,0.717,0.236,1.246,0.709,1.584
			c0.307,0.221,0.65,0.332,1.028,0.332c0.52,0,1.019-0.147,1.496-0.438c0.477-0.292,0.715-0.664,0.715-1.112V80.273z"/>
		<path fill="#7E7E7E" d="M159.917,86.491c0.733-0.072,1.23-0.219,1.49-0.445c0.26-0.223,0.39-0.663,0.39-1.317V73.181
			c0-0.521-0.043-0.879-0.13-1.077c-0.158-0.329-0.477-0.495-0.957-0.495c-0.111,0-0.23,0.011-0.361,0.035
			c-0.13,0.023-0.293,0.059-0.49,0.105v-0.39c1.063-0.283,2.344-0.662,3.842-1.135c0.055,0,0.088,0.024,0.1,0.071
			s0.018,0.148,0.018,0.308v14.172c0,0.687,0.118,1.129,0.354,1.331c0.236,0.2,0.726,0.33,1.466,0.385v0.33h-5.722V86.491z"/>
		<path fill="#7E7E7E" d="M172.306,75.922v0.853h-2.412l-0.024,6.808c0,0.6,0.052,1.052,0.154,1.359
			c0.189,0.545,0.56,0.816,1.111,0.816c0.284,0,0.53-0.068,0.739-0.202c0.209-0.134,0.447-0.345,0.715-0.637l0.308,0.26l-0.26,0.354
			c-0.41,0.553-0.843,0.94-1.301,1.169c-0.457,0.23-0.898,0.343-1.324,0.343c-0.93,0-1.56-0.412-1.891-1.24
			c-0.181-0.448-0.272-1.071-0.272-1.868v-7.162h-1.289c-0.04-0.025-0.069-0.048-0.088-0.072c-0.02-0.022-0.03-0.055-0.03-0.094
			c0-0.078,0.018-0.14,0.053-0.184c0.035-0.043,0.148-0.145,0.337-0.302c0.544-0.448,0.936-0.814,1.176-1.093
			c0.241-0.279,0.806-1.019,1.697-2.218c0.102,0,0.163,0.01,0.183,0.024c0.02,0.016,0.03,0.076,0.03,0.178v2.907H172.306z"/>
		<path fill="#7E7E7E" d="M173.086,86.491c0.646-0.089,1.07-0.247,1.271-0.479c0.201-0.233,0.301-0.782,0.301-1.649V73.015
			c0-0.441-0.057-0.768-0.171-0.975c-0.114-0.21-0.392-0.313-0.833-0.313c-0.087,0-0.172,0.006-0.254,0.018
			c-0.083,0.011-0.176,0.024-0.278,0.041v-0.426c0.347-0.102,0.774-0.227,1.283-0.373c0.508-0.146,0.861-0.249,1.058-0.313
			l1.135-0.354l0.023,0.083v7.259c0.497-0.567,0.938-0.984,1.324-1.254c0.693-0.472,1.442-0.709,2.246-0.709
			c1.276,0,2.147,0.535,2.612,1.608c0.253,0.567,0.378,1.312,0.378,2.234v4.822c0,0.835,0.096,1.378,0.29,1.631
			s0.589,0.419,1.188,0.498v0.33h-5.119v-0.33c0.686-0.097,1.127-0.257,1.324-0.484c0.197-0.23,0.295-0.777,0.295-1.645v-4.787
			c0-0.765-0.128-1.384-0.384-1.856c-0.256-0.472-0.739-0.709-1.448-0.709c-0.615,0-1.21,0.221-1.785,0.661
			c-0.575,0.443-0.863,0.73-0.863,0.864v5.827c0,0.883,0.102,1.435,0.307,1.655s0.643,0.377,1.312,0.474v0.33h-5.213V86.491z"/>
	</g>
	<g>
		<path fill="#7E7E7E" d="M200.859,86.491c0.836-0.042,1.386-0.196,1.649-0.468s0.397-0.845,0.397-1.72v-7.59h-2.023v-0.792h2.023
			c0-1.244,0.168-2.297,0.509-3.156c0.647-1.646,1.834-2.47,3.564-2.47c0.693,0,1.315,0.138,1.863,0.413
			c0.55,0.275,0.824,0.646,0.824,1.112c0,0.26-0.095,0.492-0.283,0.697c-0.188,0.206-0.416,0.308-0.682,0.308
			c-0.228,0-0.424-0.07-0.588-0.208c-0.165-0.137-0.36-0.381-0.588-0.728l-0.2-0.307c-0.11-0.166-0.239-0.306-0.389-0.419
			c-0.149-0.115-0.357-0.172-0.623-0.172c-0.596,0-0.999,0.296-1.212,0.887c-0.117,0.314-0.177,0.729-0.177,1.24v2.802h2.944v0.792
			h-2.944v7.59c0,0.891,0.12,1.46,0.361,1.708c0.24,0.247,0.868,0.407,1.884,0.479v0.33h-6.312V86.491z"/>
		<path fill="#7E7E7E" d="M208.92,86.491c0.844-0.079,1.376-0.225,1.597-0.432c0.221-0.21,0.331-0.775,0.331-1.697v-5.639
			c0-0.511-0.036-0.865-0.107-1.063c-0.118-0.322-0.365-0.484-0.744-0.484c-0.086,0-0.171,0.007-0.254,0.022
			c-0.082,0.017-0.32,0.079-0.715,0.19v-0.368l0.507-0.164c1.381-0.45,2.341-0.789,2.885-1.018c0.221-0.095,0.363-0.142,0.427-0.142
			c0.016,0.057,0.023,0.113,0.023,0.178v8.487c0,0.899,0.108,1.463,0.325,1.691c0.217,0.228,0.707,0.373,1.472,0.438v0.33h-5.746
			V86.491z M210.801,70.685c0.236-0.243,0.527-0.366,0.875-0.366c0.338,0,0.628,0.121,0.868,0.358
			c0.241,0.241,0.36,0.533,0.36,0.877c0,0.339-0.119,0.626-0.36,0.867c-0.24,0.237-0.53,0.358-0.868,0.358
			c-0.348,0-0.639-0.121-0.875-0.358c-0.236-0.241-0.354-0.528-0.354-0.867C210.447,71.218,210.565,70.928,210.801,70.685z"/>
		<path fill="#7E7E7E" d="M221.333,75.922v0.853h-2.411l-0.023,6.808c0,0.6,0.052,1.052,0.154,1.359
			c0.189,0.545,0.56,0.816,1.111,0.816c0.284,0,0.529-0.068,0.738-0.202s0.447-0.345,0.715-0.637l0.307,0.26l-0.26,0.354
			c-0.409,0.553-0.843,0.94-1.3,1.169c-0.456,0.23-0.898,0.343-1.324,0.343c-0.929,0-1.561-0.412-1.892-1.24
			c-0.181-0.448-0.271-1.071-0.271-1.868v-7.162h-1.289c-0.04-0.025-0.07-0.048-0.089-0.072c-0.019-0.022-0.03-0.055-0.03-0.094
			c0-0.078,0.019-0.14,0.054-0.184c0.036-0.043,0.149-0.145,0.338-0.302c0.544-0.448,0.935-0.814,1.175-1.093
			c0.241-0.279,0.807-1.019,1.696-2.218c0.103,0,0.164,0.01,0.184,0.024c0.02,0.016,0.029,0.076,0.029,0.178v2.907H221.333z"/>
		<path fill="#7E7E7E" d="M222.338,86.491c0.56-0.072,0.951-0.211,1.176-0.421c0.225-0.209,0.337-0.675,0.337-1.4v-6.005
			c0-0.5-0.047-0.853-0.141-1.056c-0.151-0.298-0.458-0.445-0.923-0.445c-0.071,0-0.144,0.004-0.219,0.012
			c-0.076,0.007-0.168,0.021-0.277,0.035v-0.414c0.322-0.095,1.087-0.338,2.292-0.731l1.112-0.368c0.055,0,0.088,0.019,0.1,0.061
			c0.012,0.039,0.019,0.094,0.019,0.164v1.738c0.724-0.677,1.289-1.143,1.698-1.396c0.614-0.387,1.252-0.578,1.911-0.578
			c0.535,0,1.022,0.152,1.463,0.46c0.851,0.6,1.274,1.668,1.274,3.205v5.52c0,0.567,0.113,0.977,0.34,1.229
			c0.228,0.251,0.607,0.383,1.139,0.391v0.33h-5.048v-0.33c0.575-0.079,0.977-0.239,1.206-0.479
			c0.229-0.241,0.343-0.763,0.343-1.566v-5.047c0-0.679-0.125-1.24-0.376-1.686s-0.713-0.667-1.388-0.667
			c-0.462,0-0.933,0.156-1.41,0.473c-0.267,0.181-0.611,0.48-1.034,0.897v6.619c0,0.567,0.125,0.948,0.378,1.143
			c0.252,0.192,0.649,0.296,1.193,0.313v0.33h-5.165V86.491z"/>
		<path fill="#7E7E7E" d="M242.468,76.887c0.836,0.768,1.253,1.855,1.253,3.268h-7.505c0.078,1.823,0.492,3.154,1.24,3.985
			c0.749,0.836,1.636,1.252,2.661,1.252c0.827,0,1.523-0.217,2.091-0.648c0.567-0.434,1.092-1.046,1.573-1.842l0.412,0.144
			c-0.322,1.001-0.927,1.929-1.813,2.782c-0.887,0.853-1.973,1.278-3.257,1.278c-1.481,0-2.625-0.56-3.434-1.68
			c-0.809-1.118-1.213-2.407-1.213-3.865c0-1.583,0.47-2.95,1.408-4.103c0.938-1.149,2.158-1.725,3.664-1.725
			C240.662,75.733,241.634,76.118,242.468,76.887z M236.807,77.79c-0.253,0.426-0.434,0.962-0.544,1.608h4.989
			c-0.088-0.788-0.236-1.376-0.45-1.763c-0.386-0.694-1.033-1.039-1.938-1.039C237.966,76.597,237.28,76.992,236.807,77.79z"/>
		<path fill="#7E7E7E" d="M246.014,83.098h0.392c0.18,0.899,0.423,1.589,0.73,2.068c0.551,0.882,1.356,1.325,2.417,1.325
			c0.59,0,1.056-0.164,1.398-0.492c0.343-0.326,0.514-0.75,0.514-1.271c0-0.33-0.1-0.648-0.296-0.956
			c-0.197-0.308-0.544-0.609-1.041-0.899l-1.322-0.756c-0.97-0.521-1.683-1.045-2.14-1.572c-0.458-0.528-0.686-1.15-0.686-1.869
			c0-0.882,0.313-1.605,0.945-2.173c0.63-0.568,1.422-0.853,2.375-0.853c0.418,0,0.876,0.079,1.378,0.237
			c0.5,0.156,0.781,0.235,0.845,0.235c0.141,0,0.244-0.019,0.307-0.058c0.063-0.042,0.118-0.103,0.165-0.19h0.284l0.084,3.299
			h-0.368c-0.157-0.766-0.369-1.359-0.638-1.785c-0.488-0.788-1.192-1.183-2.115-1.183c-0.552,0-0.985,0.17-1.3,0.508
			c-0.316,0.339-0.473,0.738-0.473,1.195c0,0.726,0.543,1.37,1.631,1.938l1.56,0.839c1.68,0.915,2.518,1.979,2.518,3.192
			c0,0.93-0.347,1.691-1.044,2.281c-0.696,0.592-1.608,0.886-2.731,0.886c-0.473,0-1.008-0.079-1.605-0.235
			c-0.598-0.158-0.951-0.237-1.062-0.237c-0.095,0-0.177,0.034-0.247,0.102c-0.07,0.066-0.125,0.147-0.166,0.241h-0.308V83.098z"/>
		<path fill="#7E7E7E" d="M255.437,83.098h0.389c0.183,0.899,0.427,1.589,0.731,2.068c0.551,0.882,1.356,1.325,2.419,1.325
			c0.59,0,1.054-0.164,1.396-0.492c0.342-0.326,0.513-0.75,0.513-1.271c0-0.33-0.098-0.648-0.294-0.956
			c-0.198-0.308-0.544-0.609-1.041-0.899l-1.323-0.756c-0.97-0.521-1.683-1.045-2.14-1.572c-0.458-0.528-0.687-1.15-0.687-1.869
			c0-0.882,0.314-1.605,0.945-2.173c0.631-0.568,1.424-0.853,2.377-0.853c0.417,0,0.876,0.079,1.377,0.237
			c0.5,0.156,0.781,0.235,0.846,0.235c0.142,0,0.243-0.019,0.307-0.058c0.062-0.042,0.118-0.103,0.165-0.19h0.284l0.082,3.299
			h-0.366c-0.157-0.766-0.37-1.359-0.638-1.785c-0.489-0.788-1.194-1.183-2.116-1.183c-0.552,0-0.985,0.17-1.301,0.508
			c-0.314,0.339-0.473,0.738-0.473,1.195c0,0.726,0.544,1.37,1.631,1.938l1.561,0.839c1.679,0.915,2.519,1.979,2.519,3.192
			c0,0.93-0.349,1.691-1.045,2.281c-0.696,0.592-1.605,0.886-2.731,0.886c-0.472,0-1.007-0.079-1.604-0.235
			c-0.599-0.158-0.953-0.237-1.062-0.237c-0.094,0-0.177,0.034-0.248,0.102c-0.07,0.066-0.126,0.147-0.165,0.241h-0.307V83.098z"/>
	</g>
	<g>
		<path fill="#7E7E7E" d="M278.611,86.491c0.561-0.072,0.951-0.211,1.177-0.421c0.225-0.209,0.337-0.675,0.337-1.4v-6.005
			c0-0.5-0.048-0.853-0.142-1.056c-0.149-0.298-0.457-0.445-0.922-0.445c-0.071,0-0.145,0.004-0.219,0.012
			c-0.075,0.007-0.167,0.021-0.278,0.035v-0.414c0.323-0.095,1.088-0.338,2.294-0.731l1.11-0.368c0.055,0,0.09,0.019,0.1,0.061
			c0.014,0.039,0.019,0.094,0.019,0.164v1.738c0.725-0.677,1.29-1.143,1.699-1.396c0.614-0.387,1.251-0.578,1.911-0.578
			c0.535,0,1.022,0.152,1.464,0.46c0.849,0.6,1.274,1.668,1.274,3.205v5.52c0,0.567,0.113,0.977,0.339,1.229
			c0.228,0.251,0.607,0.383,1.138,0.391v0.33h-5.047v-0.33c0.575-0.079,0.978-0.239,1.206-0.479
			c0.228-0.241,0.342-0.763,0.342-1.566v-5.047c0-0.679-0.125-1.24-0.376-1.686s-0.713-0.667-1.387-0.667
			c-0.463,0-0.933,0.156-1.41,0.473c-0.268,0.181-0.61,0.48-1.035,0.897v6.619c0,0.567,0.126,0.948,0.378,1.143
			c0.254,0.192,0.65,0.296,1.194,0.313v0.33h-5.166V86.491z"/>
		<path fill="#7E7E7E" d="M294.026,75.875v7.565c0,0.537,0.074,0.966,0.225,1.288c0.292,0.6,0.827,0.899,1.608,0.899
			c0.535,0,1.059-0.178,1.571-0.532c0.291-0.196,0.588-0.47,0.887-0.816v-6.478c0-0.605-0.118-1.005-0.354-1.193
			s-0.71-0.304-1.419-0.344v-0.39h3.818v8.321c0,0.537,0.097,0.905,0.289,1.107c0.193,0.199,0.603,0.288,1.224,0.266v0.33
			c-0.433,0.118-0.752,0.207-0.957,0.266c-0.204,0.061-0.549,0.168-1.028,0.326c-0.205,0.069-0.655,0.239-1.348,0.507
			c-0.04,0-0.063-0.017-0.071-0.053c-0.007-0.036-0.012-0.077-0.012-0.124v-1.902c-0.536,0.637-1.024,1.11-1.466,1.417
			c-0.67,0.474-1.379,0.709-2.128,0.709c-0.686,0-1.332-0.243-1.938-0.733c-0.614-0.482-0.922-1.289-0.922-2.426v-6.143
			c0-0.626-0.134-1.045-0.402-1.256c-0.173-0.132-0.543-0.227-1.11-0.281v-0.331H294.026z"/>
		<path fill="#7E7E7E" d="M308.542,75.922v0.853h-2.412l-0.023,6.808c0,0.6,0.051,1.052,0.154,1.359
			c0.188,0.545,0.559,0.816,1.11,0.816c0.283,0,0.53-0.068,0.739-0.202s0.447-0.345,0.715-0.637l0.308,0.26l-0.261,0.354
			c-0.409,0.553-0.844,0.94-1.3,1.169c-0.457,0.23-0.898,0.343-1.324,0.343c-0.93,0-1.561-0.412-1.891-1.24
			c-0.183-0.448-0.272-1.071-0.272-1.868v-7.162h-1.288c-0.04-0.025-0.069-0.048-0.09-0.072c-0.019-0.022-0.029-0.055-0.029-0.094
			c0-0.078,0.019-0.14,0.053-0.184c0.037-0.043,0.148-0.145,0.338-0.302c0.544-0.448,0.936-0.814,1.176-1.093
			c0.241-0.279,0.806-1.019,1.696-2.218c0.103,0,0.164,0.01,0.185,0.024c0.019,0.016,0.028,0.076,0.028,0.178v2.907H308.542z"/>
		<path fill="#7E7E7E" d="M309.216,86.431c0.724-0.062,1.205-0.19,1.441-0.385c0.236-0.192,0.355-0.604,0.355-1.234v-5.33
			c0-0.78-0.074-1.339-0.22-1.673c-0.146-0.335-0.411-0.503-0.798-0.503c-0.079,0-0.183,0.01-0.313,0.03
			c-0.13,0.019-0.266,0.045-0.407,0.075v-0.391c0.447-0.156,0.907-0.318,1.379-0.484c0.471-0.164,0.797-0.282,0.979-0.354
			c0.392-0.148,0.796-0.318,1.212-0.507c0.056,0,0.09,0.019,0.1,0.059c0.014,0.039,0.02,0.122,0.02,0.249v1.938
			c0.505-0.701,0.992-1.248,1.464-1.644c0.47-0.395,0.958-0.59,1.464-0.59c0.402,0,0.73,0.12,0.983,0.359
			c0.253,0.241,0.38,0.541,0.38,0.905c0,0.322-0.098,0.596-0.29,0.814c-0.193,0.221-0.435,0.332-0.728,0.332
			c-0.299,0-0.601-0.138-0.904-0.413c-0.303-0.277-0.541-0.415-0.715-0.415c-0.276,0-0.614,0.223-1.017,0.668
			c-0.402,0.444-0.603,0.904-0.603,1.378v5.332c0,0.677,0.157,1.147,0.473,1.412c0.315,0.264,0.839,0.386,1.572,0.371v0.391h-5.827
			V86.431z"/>
		<path fill="#7E7E7E" d="M317.643,86.491c0.845-0.079,1.376-0.225,1.597-0.432c0.222-0.21,0.331-0.775,0.331-1.697v-5.639
			c0-0.511-0.035-0.865-0.106-1.063c-0.118-0.322-0.366-0.484-0.744-0.484c-0.087,0-0.173,0.007-0.255,0.022
			c-0.083,0.017-0.321,0.079-0.715,0.19v-0.368l0.509-0.164c1.378-0.45,2.34-0.789,2.884-1.018c0.221-0.095,0.361-0.142,0.426-0.142
			c0.016,0.057,0.023,0.113,0.023,0.178v8.487c0,0.899,0.108,1.463,0.325,1.691c0.217,0.228,0.708,0.373,1.472,0.438v0.33h-5.746
			V86.491z M319.523,70.685c0.237-0.243,0.529-0.366,0.875-0.366c0.34,0,0.629,0.121,0.868,0.358
			c0.241,0.241,0.361,0.533,0.361,0.877c0,0.339-0.12,0.626-0.361,0.867c-0.239,0.237-0.528,0.358-0.868,0.358
			c-0.346,0-0.638-0.121-0.875-0.358c-0.236-0.241-0.354-0.528-0.354-0.867C319.168,71.218,319.287,70.928,319.523,70.685z"/>
		<path fill="#7E7E7E" d="M330.056,75.922v0.853h-2.412l-0.023,6.808c0,0.6,0.051,1.052,0.154,1.359
			c0.189,0.545,0.559,0.816,1.111,0.816c0.283,0,0.529-0.068,0.738-0.202s0.448-0.345,0.715-0.637l0.308,0.26l-0.261,0.354
			c-0.409,0.553-0.844,0.94-1.3,1.169c-0.456,0.23-0.898,0.343-1.323,0.343c-0.93,0-1.562-0.412-1.892-1.24
			c-0.183-0.448-0.271-1.071-0.271-1.868v-7.162h-1.289c-0.04-0.025-0.068-0.048-0.09-0.072c-0.019-0.022-0.029-0.055-0.029-0.094
			c0-0.078,0.02-0.14,0.053-0.184c0.037-0.043,0.149-0.145,0.338-0.302c0.544-0.448,0.937-0.814,1.177-1.093
			c0.24-0.279,0.805-1.019,1.695-2.218c0.104,0,0.164,0.01,0.185,0.024c0.02,0.016,0.028,0.076,0.028,0.178v2.907H330.056z"/>
		<path fill="#7E7E7E" d="M331.096,86.491c0.844-0.079,1.375-0.225,1.596-0.432c0.221-0.21,0.331-0.775,0.331-1.697v-5.639
			c0-0.511-0.035-0.865-0.106-1.063c-0.118-0.322-0.366-0.484-0.744-0.484c-0.087,0-0.172,0.007-0.254,0.022
			c-0.084,0.017-0.322,0.079-0.716,0.19v-0.368l0.509-0.164c1.378-0.45,2.34-0.789,2.884-1.018c0.22-0.095,0.361-0.142,0.426-0.142
			c0.016,0.057,0.023,0.113,0.023,0.178v8.487c0,0.899,0.108,1.463,0.325,1.691c0.217,0.228,0.708,0.373,1.472,0.438v0.33h-5.745
			V86.491z M332.976,70.685c0.235-0.243,0.528-0.366,0.875-0.366c0.338,0,0.628,0.121,0.868,0.358
			c0.24,0.241,0.361,0.533,0.361,0.877c0,0.339-0.121,0.626-0.361,0.867c-0.24,0.237-0.53,0.358-0.868,0.358
			c-0.347,0-0.64-0.121-0.875-0.358c-0.236-0.241-0.355-0.528-0.355-0.867C332.621,71.218,332.74,70.928,332.976,70.685z"/>
		<path fill="#7E7E7E" d="M339.459,77.358c0.997-1.084,2.278-1.625,3.848-1.625c1.561,0,2.853,0.513,3.877,1.536
			c1.024,1.024,1.537,2.389,1.537,4.09c0,1.568-0.496,2.932-1.489,4.091c-0.993,1.157-2.278,1.738-3.854,1.738
			c-1.514,0-2.795-0.556-3.842-1.668c-1.048-1.111-1.573-2.506-1.573-4.184C337.963,79.768,338.462,78.442,339.459,77.358z
			 M341.348,77.057c-0.791,0.717-1.186,1.955-1.186,3.712c0,1.403,0.317,2.712,0.954,3.926c0.635,1.212,1.517,1.819,2.646,1.819
			c0.884,0,1.565-0.405,2.043-1.218c0.477-0.811,0.716-1.876,0.716-3.192c0-1.361-0.304-2.646-0.911-3.854
			c-0.608-1.204-1.487-1.808-2.642-1.808C342.346,76.442,341.805,76.647,341.348,77.057z"/>
		<path fill="#7E7E7E" d="M349.891,86.491c0.561-0.072,0.951-0.211,1.177-0.421c0.224-0.209,0.337-0.675,0.337-1.4v-6.005
			c0-0.5-0.048-0.853-0.142-1.056c-0.15-0.298-0.457-0.445-0.923-0.445c-0.071,0-0.144,0.004-0.218,0.012
			c-0.075,0.007-0.167,0.021-0.278,0.035v-0.414c0.323-0.095,1.087-0.338,2.294-0.731l1.11-0.368c0.055,0,0.089,0.019,0.1,0.061
			c0.014,0.039,0.019,0.094,0.019,0.164v1.738c0.724-0.677,1.289-1.143,1.699-1.396c0.614-0.387,1.251-0.578,1.91-0.578
			c0.536,0,1.023,0.152,1.465,0.46c0.849,0.6,1.274,1.668,1.274,3.205v5.52c0,0.567,0.113,0.977,0.339,1.229
			c0.227,0.251,0.607,0.383,1.138,0.391v0.33h-5.047v-0.33c0.575-0.079,0.977-0.239,1.206-0.479
			c0.228-0.241,0.342-0.763,0.342-1.566v-5.047c0-0.679-0.125-1.24-0.376-1.686s-0.713-0.667-1.387-0.667
			c-0.463,0-0.933,0.156-1.41,0.473c-0.268,0.181-0.611,0.48-1.035,0.897v6.619c0,0.567,0.125,0.948,0.378,1.143
			c0.254,0.192,0.65,0.296,1.194,0.313v0.33h-5.166V86.491z"/>
	</g>
	<line fill="none" stroke="#7E7E7E" stroke-miterlimit="10" x1="192.764" y1="70.428" x2="192.764" y2="86.821"/>
	<line fill="none" stroke="#7E7E7E" stroke-miterlimit="10" x1="270.673" y1="70.428" x2="270.673" y2="86.821"/>
	<line fill="none" stroke="#414543" stroke-miterlimit="10" x1="122.17" y1="64.008" x2="359.693" y2="64.008"/>
	<line fill="none" stroke="#414543" stroke-miterlimit="10" x1="123.253" y1="93.572" x2="360.777" y2="93.572"/>
</g>
</svg>
