<?xml version="1.0" encoding="utf-8"?>
<!-- Generator: Adobe Illustrator 15.0.0, SVG Export Plug-In . SVG Version: 6.00 Build 0)  -->
<!DOCTYPE svg PUBLIC "-//W3C//DTD SVG 1.1//EN" "http://www.w3.org/Graphics/SVG/1.1/DTD/svg11.dtd">
<svg version="1.1" id="Layer_1" xmlns="http://www.w3.org/2000/svg" xmlns:xlink="http://www.w3.org/1999/xlink" x="0px" y="0px"
	 width="384.091px" height="104.545px" viewBox="0 0 384.091 104.545" enable-background="new 0 0 384.091 104.545"
	 xml:space="preserve">
<g>
	<g>
		<path fill="#414543" d="M57.395,83.891c0,0,5.666-36.333-37-31c0,0-0.625,0.75,2.875,1s7.795,1.473,8.875,14.232
			C33.395,82.891,50.77,86.266,57.395,83.891z"/>
		<path fill="#414543" d="M63.73,83.891c0,0-5.666-36.333,37-31c0,0,0.625,0.75-2.875,1s-7.795,1.473-8.875,14.232
			C87.73,82.891,70.355,86.266,63.73,83.891z"/>
		<path fill="#414543" d="M62.402,22.766c-1.396-4.607-1.855-6.638-1.99-7.537c0.096-0.71-0.01-0.713-0.01-0.713
			s-0.09,0.006,0,0.646v0.128c-0.132,0.926-0.585,2.961-1.953,7.476c-2.5,8.25-11.125,13-11.125,23.75s13.101,16.125,13.101,16.125
			s13.102-5.375,13.102-16.125S64.902,31.016,62.402,22.766z M60.426,57.891c-2.468,0-4.469-2.463-4.469-5.5
			c0-3.038,2.001-5.5,4.469-5.5c2.469,0,4.469,2.462,4.469,5.5C64.895,55.428,62.895,57.891,60.426,57.891z"/>
	</g>
	<g>
		<path fill="#414543" d="M139.631,75.971l17.367-39.445h14.625v1.617h-1.758c-2.344,0-3.879,0.193-4.605,0.58
			s-1.213,1.107-1.459,2.162s-0.369,3.563-0.369,7.523v23.379c0,3.75,0.094,6.205,0.281,7.365s0.662,2.021,1.424,2.584
			s2.221,0.844,4.377,0.844h2.109v1.617h-22.781V82.58h1.688c2.016,0,3.416-0.258,4.201-0.773s1.289-1.318,1.512-2.408
			s0.334-3.627,0.334-7.611v-30.34l-18.879,42.75h-1.652l-19.02-42.75v27.914c0,3.82,0.117,6.422,0.352,7.805
			s0.961,2.596,2.18,3.639s2.93,1.635,5.133,1.775v1.617h-17.051V82.58c2.039-0.117,3.697-0.674,4.975-1.67s2.057-2.221,2.338-3.674
			s0.422-4.148,0.422-8.086V48.408c0-3.797-0.111-6.246-0.334-7.348c-0.223-1.102-0.691-1.863-1.406-2.285s-2.279-0.633-4.693-0.633
			h-1.301v-1.617h14.52L139.631,75.971z"/>
		<path fill="#414543" d="M214.092,69.361h1.688l-1.02,14.836h-39.48V82.58h0.984c2.367,0,3.896-0.316,4.588-0.949
			s1.131-1.436,1.318-2.408s0.281-3.451,0.281-7.436V48.408c0-3.633-0.1-6.023-0.299-7.172c-0.199-1.148-0.656-1.951-1.371-2.408
			s-2.221-0.686-4.518-0.686v-1.617h34.066l1.125,11.883h-1.652c-0.75-3.328-1.67-5.689-2.76-7.084
			c-1.09-1.394-2.385-2.273-3.885-2.637c-1.5-0.363-3.914-0.545-7.242-0.545h-6.609v20.004h5.062c2.32,0,3.943-0.199,4.869-0.598
			s1.535-1.002,1.828-1.811s0.439-2.385,0.439-4.729h1.652v16.312h-1.652c0-2.648-0.223-4.424-0.668-5.326s-1.096-1.488-1.951-1.758
			s-2.303-0.404-4.342-0.404h-5.238v11.285c0,5.648,0.363,8.971,1.09,9.967s2.684,1.494,5.871,1.494h3.551
			c2.508,0,4.57-0.322,6.188-0.967s3.158-1.969,4.623-3.973S213.248,72.877,214.092,69.361z"/>
		<path fill="#414543" d="M270.342,84.197H257.51c-2.273-1.594-5.754-5.766-10.441-12.516c-1.5-2.156-3.059-4.225-4.676-6.205
			s-2.73-3.188-3.34-3.621s-1.559-0.65-2.848-0.65h-1.898v10.582c0,3.75,0.088,6.205,0.264,7.365s0.645,2.021,1.406,2.584
			s2.221,0.844,4.377,0.844h2.285v1.617h-22.816V82.58h1.547c2.039,0,3.451-0.258,4.236-0.773s1.283-1.318,1.494-2.408
			s0.316-3.627,0.316-7.611V48.408c0-3.797-0.105-6.246-0.316-7.348c-0.211-1.102-0.68-1.863-1.406-2.285s-2.297-0.633-4.711-0.633
			h-0.809v-1.617l6.82-0.352c4.547-0.211,8.156-0.316,10.828-0.316c4.547,0,8.244,0.422,11.092,1.266s5.15,2.227,6.908,4.148
			c1.758,1.922,2.637,4.219,2.637,6.891c0,3.117-1.148,5.777-3.445,7.98s-5.672,3.574-10.125,4.113
			c1.992,0.961,5.203,4.43,9.633,10.406c3.609,4.852,6.445,8.027,8.508,9.527s4.5,2.297,7.312,2.391V84.197z M234.307,59.588
			c1.758-0.047,3.574-0.117,5.449-0.211s3.504-0.352,4.887-0.773s2.502-1.037,3.357-1.846s1.529-1.869,2.021-3.182
			s0.738-2.93,0.738-4.852c0-3.352-0.838-6.035-2.514-8.051c-1.676-2.016-5.326-3.023-10.951-3.023
			c-0.867,0-1.863,0.047-2.988,0.141V59.588z"/>
		<path fill="#414543" d="M297.658,63.842h20.566v1.688c-2.273,0-3.814,0.229-4.623,0.686s-1.342,1.219-1.6,2.285
			s-0.387,3.65-0.387,7.752v5.062c-0.562-0.094-1.066-0.141-1.512-0.141c-1.805,0-4.172,0.551-7.102,1.652
			c-3.984,1.5-7.676,2.25-11.074,2.25c-6.82,0-12.492-2.244-17.016-6.732s-6.785-10.178-6.785-17.068
			c0-6.82,2.156-12.797,6.469-17.93s10.172-7.699,17.578-7.699c6.375,0,11.648,2.344,15.82,7.031c0.773-1.64,1.266-3.41,1.477-5.309
			h1.688v15.926h-1.688c-0.68-4.898-2.537-8.777-5.572-11.637c-3.035-2.859-6.721-4.289-11.057-4.289
			c-4.477,0-8.379,1.665-11.707,4.992c-3.328,3.328-4.992,9.234-4.992,17.719c0,8.461,1.605,14.455,4.816,17.982
			s7.195,5.291,11.953,5.291c2.438,0,4.652-0.498,6.645-1.494s3.352-2.209,4.078-3.639s1.09-3.234,1.09-5.414
			c0-2.555-0.17-4.26-0.51-5.115s-0.861-1.43-1.564-1.723s-1.992-0.439-3.867-0.439h-1.125V63.842z"/>
		<path fill="#414543" d="M361.045,69.361h1.688l-1.02,14.836h-39.48V82.58h0.984c2.367,0,3.896-0.316,4.588-0.949
			s1.131-1.436,1.318-2.408s0.281-3.451,0.281-7.436V48.408c0-3.633-0.1-6.023-0.299-7.172c-0.199-1.148-0.656-1.951-1.371-2.408
			s-2.221-0.686-4.518-0.686v-1.617h34.066l1.125,11.883h-1.652c-0.75-3.328-1.67-5.689-2.76-7.084
			c-1.09-1.394-2.385-2.273-3.885-2.637c-1.5-0.363-3.914-0.545-7.242-0.545h-6.609v20.004h5.062c2.32,0,3.943-0.199,4.869-0.598
			s1.535-1.002,1.828-1.811s0.439-2.385,0.439-4.729h1.652v16.312h-1.652c0-2.648-0.223-4.424-0.668-5.326s-1.096-1.488-1.951-1.758
			s-2.303-0.404-4.342-0.404h-5.238v11.285c0,5.648,0.363,8.971,1.09,9.967s2.684,1.494,5.871,1.494h3.551
			c2.508,0,4.57-0.322,6.188-0.967s3.158-1.969,4.623-3.973S360.201,72.877,361.045,69.361z"/>
	</g>
</g>
</svg>
